<svg width="107" height="50" viewBox="0 0 337 92" fill="none" xmlns="http://www.w3.org/2000/svg">
<path d="M224.222 0V66.802C232.358 67.1853 240.471 67.6487 248.563 68.1953V82.3587C235.73 81.4919 222.884 80.8343 210.03 80.386V0H224.222ZM337.001 0.008L318.52 43.404L336.996 91.696L336.976 91.7047C331.589 90.9284 326.197 90.1899 320.8 89.4893L310.424 62.3853L299.95 86.9733C294.986 86.418 290.016 85.8933 285.034 85.4L303.05 43.1133L286.551 0.00866667H301.903L311.141 24.1313L321.413 0.008H337.001ZM161.322 79.684V0.00733333H200.939V14.298H175.514V32.818H194.751V46.9813H175.514V79.6813L161.322 79.684ZM108.328 14.2987V0.00666667H152.223V14.298H137.371V80.0713C132.634 80.198 127.902 80.346 123.18 80.5267V14.2987H108.328ZM59.8103 84.644V0.00933333H99.23V14.2993H74.0005V33.6567C79.7966 33.5813 88.038 33.4967 93.1654 33.5087V47.6733C86.7472 47.5933 79.5024 47.7627 74.0005 47.818V69.2607C82.4041 68.5899 90.8144 68.0077 99.23 67.514V81.6787C86.0749 82.4474 72.9331 83.4364 59.8103 84.6453V84.644ZM31.9702 51.9027L31.9696 0.00666667H46.1618V85.98C40.9738 86.52 35.7951 87.0953 30.6262 87.7027L14.1915 39.8827V89.7507C9.4518 90.376 4.72129 91.0273 0 91.708V0.008H13.4872L31.9696 51.9027H31.9702ZM260.271 83.2127V0.008H274.463V84.4C269.738 83.9733 265.009 83.58 260.271 83.2133V83.2127Z" fill="#DB202C"/>
</svg>
